<?xml version="1.0" standalone="no"?>
<!DOCTYPE svg PUBLIC "-//W3C//DTD SVG 20010904//EN"
 "http://www.w3.org/TR/2001/REC-SVG-20010904/DTD/svg10.dtd">
<svg version="1.0" xmlns="http://www.w3.org/2000/svg"
 width="200.000000pt" height="200.000000pt" viewBox="0 0 200.000000 200.000000"
 preserveAspectRatio="xMidYMid meet">
<metadata>
Created by potrace 1.11, written by Peter Selinger 2001-2013
</metadata>
<g transform="translate(0.000000,200.000000) scale(0.100000,-0.100000)"
fill="#000000" stroke="none">
<path d="M450 1221 c-5 -11 -10 -43 -10 -71 0 -79 10 -90 81 -90 57 0 60 1 57
23 -2 18 -10 23 -41 25 l-38 3 3 42 c3 41 4 42 41 45 29 3 37 7 37 23 0 17 -7
19 -60 19 -48 0 -61 -4 -70 -19z"/>
<path d="M610 1150 l0 -90 30 0 c28 0 30 3 30 35 0 28 4 35 20 35 16 0 20 -7
20 -35 0 -32 2 -35 30 -35 l30 0 0 90 0 90 -30 0 c-27 0 -30 -3 -30 -30 0 -23
-4 -30 -20 -30 -16 0 -20 7 -20 30 0 27 -3 30 -30 30 l-30 0 0 -90z"/>
<path d="M824 1203 c-9 -20 -18 -61 -21 -90 l-6 -53 32 0 c24 0 31 4 31 20 0
15 7 20 25 20 18 0 25 -5 25 -20 0 -16 7 -20 31 -20 l32 0 -6 53 c-3 28 -13
69 -21 90 -15 35 -19 37 -62 37 -42 0 -46 -2 -60 -37z m73 -49 c-3 -3 -12 -4
-20 -2 -11 2 -12 9 -5 28 l10 25 11 -23 c5 -12 8 -25 4 -28z"/>
<path d="M1000 1150 l0 -90 30 0 c29 0 30 2 30 42 0 40 0 41 20 23 11 -10 20
-29 20 -42 0 -19 5 -23 30 -23 l30 0 0 90 0 90 -30 0 c-26 0 -30 -4 -30 -27
l0 -27 -28 27 c-15 15 -38 27 -50 27 -21 0 -22 -4 -22 -90z"/>
<path d="M1210 1230 c-11 -7 -15 -27 -15 -73 0 -86 10 -97 92 -97 l64 0 -3 48
c-3 43 -5 47 -28 47 -20 0 -26 -6 -28 -28 -3 -20 -8 -27 -20 -25 -13 2 -17 14
-17 48 0 45 0 45 38 48 29 3 37 7 37 23 0 16 -7 19 -52 19 -29 0 -60 -5 -68
-10z"/>
<path d="M1380 1150 l0 -90 70 0 c63 0 70 2 70 20 0 17 -7 20 -40 20 -29 0
-40 4 -40 15 0 10 10 15 30 15 23 0 30 4 30 20 0 16 -7 20 -30 20 -20 0 -30 5
-30 15 0 11 11 15 40 15 33 0 40 3 40 20 0 18 -7 20 -70 20 l-70 0 0 -90z"/>
<path d="M110 896 l0 -96 64 0 c84 0 96 11 96 94 0 79 -10 89 -96 94 l-64 4 0
-96z m100 -1 c0 -38 -3 -45 -20 -45 -17 0 -20 7 -20 45 0 38 3 45 20 45 17 0
20 -7 20 -45z"/>
<path d="M310 895 l0 -95 65 0 c63 0 65 1 65 25 0 23 -4 25 -40 25 -22 0 -40
5 -40 10 0 6 14 10 30 10 25 0 30 4 30 25 0 21 -5 25 -30 25 -16 0 -30 5 -30
10 0 6 18 10 40 10 36 0 40 3 40 25 0 24 -2 25 -65 25 l-65 0 0 -95z"/>
<path d="M470 965 c0 -18 5 -25 20 -25 17 0 19 -8 22 -67 3 -66 4 -68 31 -71
l27 -3 0 70 c0 69 1 71 25 71 20 0 25 5 25 25 0 24 -2 25 -75 25 -73 0 -75 -1
-75 -25z"/>
<path d="M650 895 l0 -95 70 0 c68 0 70 1 70 25 0 23 -4 25 -40 25 -45 0 -55
17 -12 22 19 2 27 9 27 23 0 14 -8 21 -27 23 -43 5 -33 22 12 22 36 0 40 3 40
25 0 24 -2 25 -70 25 l-70 0 0 -95z"/>
<path d="M843 980 c-21 -9 -23 -16 -23 -84 0 -87 8 -96 84 -96 42 0 46 2 46
25 0 22 -4 25 -35 25 -35 0 -35 0 -35 45 0 45 0 45 35 45 31 0 35 3 35 25 0
23 -4 25 -42 24 -24 0 -53 -4 -65 -9z"/>
<path d="M977 983 c-4 -3 -7 -15 -7 -25 0 -13 7 -18 25 -18 24 0 25 -2 25 -70
l0 -70 30 0 30 0 0 70 c0 68 1 70 25 70 20 0 25 5 25 25 0 24 -2 25 -73 25
-41 0 -77 -3 -80 -7z"/>
<path d="M1157 983 c-15 -15 -7 -43 13 -43 17 0 20 -7 20 -44 0 -35 -4 -45
-20 -49 -12 -3 -20 -14 -20 -26 0 -19 6 -21 65 -21 63 0 65 1 65 25 0 16 -6
25 -15 25 -11 0 -15 12 -15 45 0 33 4 45 15 45 9 0 15 9 15 25 0 24 -3 25 -58
25 -32 0 -62 -3 -65 -7z"/>
<path d="M1329 969 c-18 -18 -21 -30 -17 -86 3 -42 9 -68 19 -74 21 -13 113
-11 127 3 7 7 12 41 12 85 0 61 -3 74 -19 83 -34 18 -99 12 -122 -11z m89 -73
c3 -40 -10 -59 -35 -49 -8 3 -13 22 -13 50 0 40 2 44 23 41 18 -2 23 -10 25
-42z"/>
<path d="M1510 895 l0 -95 30 0 c29 0 30 1 30 48 l0 47 20 -25 c11 -14 20 -35
20 -47 0 -19 6 -23 30 -23 l30 0 0 96 0 95 -27 -3 c-22 -2 -29 -9 -33 -31 l-5
-28 -29 30 c-17 17 -38 31 -48 31 -16 0 -18 -10 -18 -95z"/>
</g>
</svg>
